<svg width="52" height="47" viewBox="0 0 52 47" fill="none" xmlns="http://www.w3.org/2000/svg">
<g filter="url(#filter0_d_16654_3806)">
<path d="M40.2512 21.9248C40.2512 18.9273 37.813 16.4868 34.8155 16.4868H28.5565V14.5989C28.5565 11.448 25.9942 8.88574 22.8433 8.88574C19.6924 8.88574 17.1301 11.448 17.1301 14.5989V17.2356H11.4282C9.0667 17.2356 7.14502 19.1573 7.14502 21.5188V34.1158C7.14502 36.4773 9.0667 38.3967 11.4282 38.3967H19.7645C20.5788 38.8884 21.4855 39.1455 22.4283 39.1455H34.8155C37.8131 39.1455 40.2513 36.7073 40.2513 33.7098V33.3692C40.2513 32.4129 39.9941 31.4859 39.5273 30.6784C39.9941 29.8686 40.2513 28.9416 40.2513 27.9876V27.647C40.2513 26.6907 39.9941 25.7637 39.5273 24.9562C39.9941 24.1465 40.2513 23.2194 40.2513 22.2654L40.2512 21.9248Z" fill="white"/>
<path d="M11.4273 19.5469H21.9723V36.0869H11.4273C10.3391 36.0869 9.45557 35.2034 9.45557 34.1151V21.5187C9.45557 20.4304 10.3391 19.5469 11.4273 19.5469Z" fill="#FB68B3"/>
<path d="M37.9418 22.2644V21.924C37.9418 20.1972 36.5418 18.7972 34.8148 18.7972H26.2468V14.5983C26.2468 12.7183 24.7229 11.1943 22.8429 11.1943C20.9629 11.1943 19.439 12.7183 19.439 14.5983V33.8474C19.439 35.4977 20.7767 36.8355 22.4271 36.8355H34.8149C36.5418 36.8355 37.9419 35.4355 37.9419 33.7085V33.3682C37.9419 32.2155 37.311 31.2194 36.3826 30.6772C37.311 30.1351 37.9419 29.1391 37.9419 27.9865V27.6461C37.9419 26.4934 37.3109 25.4975 36.3826 24.9552C37.3109 24.4129 37.9418 23.417 37.9418 22.2644Z" fill="#FFD1D1"/>
<path d="M37.2977 31.4832C37.0483 31.1596 36.738 30.885 36.3828 30.6776C36.6096 30.5452 36.8179 30.3849 37.0043 30.2026C36.985 30.201 36.9684 30.1914 36.9487 30.1914H31.6631C31.2769 30.1914 30.9639 30.5045 30.9639 30.8907C30.9639 31.2769 31.2769 31.5899 31.6631 31.5899H36.9487C37.0786 31.5899 37.1935 31.5449 37.2977 31.4832Z" fill="#FFABAB"/>
<path d="M31.6631 24.0156C31.2769 24.0156 30.9639 24.3287 30.9639 24.7149C30.9639 25.1011 31.2769 25.4141 31.6631 25.4141H36.9487C36.9593 25.4141 36.9682 25.4086 36.9787 25.4081C36.7985 25.2356 36.5997 25.082 36.3828 24.9553C36.7444 24.744 37.0588 24.4623 37.3105 24.1309C37.2033 24.0643 37.0841 24.0156 36.9487 24.0156H31.6631Z" fill="#FFABAB"/>
<path d="M36.6989 20.3113L36.5807 20.2872L36.514 20.2593L36.4512 20.2387L36.3291 20.1682C36.2053 20.0821 36.1299 20.0078 36.0647 19.9202L36.0259 19.8685L35.9635 19.752C35.9408 19.7045 35.9251 19.6609 35.9108 19.6152L35.8682 19.5227L35.8672 19.4509L35.4945 16.9134C35.3948 16.2411 35.011 15.6467 34.4413 15.2824L32.3553 13.9493C31.9841 13.7114 31.8017 13.2778 31.8903 12.8444C31.9848 12.386 32.3595 12.0493 32.8232 12.0054L35.0229 11.7776C35.7611 11.7008 36.4254 11.2728 36.7994 10.6318L38.153 8.31418C38.2099 8.20915 38.2926 8.12684 38.3487 8.07589L38.3871 8.04103L38.4719 7.98065C38.6118 7.89584 38.7343 7.85054 38.8588 7.83096L38.9108 7.8226L39.0319 7.81738C39.0936 7.81738 39.1575 7.82439 39.2203 7.83725C39.2988 7.85332 39.3693 7.87633 39.4352 7.9077L39.4743 7.92342L39.5766 7.98658C39.6767 8.05046 39.7695 8.14041 39.8434 8.24788L39.8825 8.29639L39.9453 8.43208C39.9805 8.51968 40.0018 8.59885 40.0141 8.68016L40.3483 11.3596C40.4418 12.0964 40.8845 12.7523 41.5324 13.1127L43.4704 14.1904C43.8759 14.4144 44.0862 14.8714 43.9924 15.3267C43.9055 15.752 43.5584 16.0862 43.1293 16.1581L40.685 16.5628C40.0176 16.6734 39.4322 17.0687 39.0784 17.6472L37.6794 19.9267L37.5796 20.0216C37.5821 20.0196 37.5831 20.0185 37.5835 20.0185C37.5852 20.0185 37.4781 20.1172 37.4781 20.1172L37.3588 20.1926C37.2775 20.2411 37.1735 20.2819 37.0671 20.3042L36.9998 20.3181L36.8753 20.3241L36.6989 20.3113Z" fill="#FFC300"/>
<path d="M39.0315 8.48865C39.0498 8.48865 39.0684 8.49108 39.0868 8.49487C39.1126 8.50015 39.1377 8.50794 39.1593 8.52045C39.1742 8.52623 39.1886 8.53452 39.2004 8.54224C39.243 8.56975 39.2762 8.60333 39.3002 8.64306C39.313 8.65906 39.3201 8.67664 39.3272 8.69414C39.3378 8.72044 39.3454 8.7488 39.3499 8.77917L39.6822 11.4424C39.8031 12.3938 40.3675 13.2327 41.2064 13.6994L43.1441 14.777C43.2908 14.858 43.3687 15.0267 43.335 15.1911C43.3028 15.3479 43.1761 15.4692 43.0181 15.4957L40.5757 15.9C39.7163 16.0425 38.9611 16.5517 38.5057 17.2966L37.1582 19.4921C37.1467 19.5107 37.1288 19.5221 37.1144 19.5377C37.1056 19.5475 37.0971 19.5571 37.0873 19.5658C37.0701 19.5806 37.0535 19.594 37.0339 19.6048C37.002 19.6236 36.968 19.6387 36.9311 19.6465C36.9128 19.6493 36.8944 19.6523 36.8767 19.6523C36.873 19.6523 36.8693 19.6521 36.8656 19.6519L36.7973 19.6459C36.7767 19.6417 36.7567 19.6349 36.7372 19.6255C36.7172 19.6188 36.6982 19.6068 36.6791 19.5949C36.6496 19.5737 36.6246 19.5472 36.603 19.5181C36.5888 19.4998 36.5784 19.4805 36.5683 19.4594C36.5618 19.4456 36.5573 19.4311 36.5526 19.4164C36.547 19.3985 36.536 19.3832 36.5336 19.3642L36.1591 16.8155C36.0312 15.951 35.5373 15.1856 34.8033 14.7163L32.7173 13.3833C32.5824 13.2967 32.5163 13.1358 32.5485 12.9791C32.5822 12.8146 32.7177 12.6897 32.887 12.6736L35.0924 12.4456C36.0447 12.3463 36.8964 11.7979 37.3794 10.9703L38.7332 8.65284C38.7503 8.62155 38.7741 8.59697 38.8005 8.57289C38.8133 8.5621 38.8263 8.55138 38.8418 8.54117C38.8784 8.51923 38.9196 8.50087 38.9639 8.49387C38.9762 8.49165 38.9905 8.48986 39.0047 8.48986C39.0065 8.48986 39.0084 8.48986 39.0103 8.48994C39.0173 8.48908 39.0243 8.48865 39.0315 8.48865ZM39.0315 7.14551H38.951L38.9166 7.14922C38.8538 7.15287 38.7905 7.16037 38.7274 7.17159C38.5452 7.20003 38.3422 7.27462 38.1518 7.38866L38.1273 7.40323L38.1035 7.41888C38.0425 7.45904 37.9903 7.49933 37.9395 7.54171L37.9166 7.56078L37.8947 7.58086C37.7591 7.70469 37.652 7.83687 37.5679 7.98427L36.2195 10.2927C35.9529 10.7494 35.4795 11.0546 34.9529 11.1096L32.7488 11.3373C31.9997 11.4086 31.3861 11.9603 31.2326 12.709C31.0898 13.4051 31.3947 14.1302 31.9914 14.5133L34.08 15.8479C34.4857 16.1073 34.7592 16.5316 34.8303 17.012L35.2046 19.5592L35.2323 19.7473L35.2968 19.8953C35.314 19.9429 35.3326 19.9885 35.3539 20.0333C35.411 20.1524 35.4717 20.2513 35.5428 20.3426C35.6312 20.4624 35.757 20.5867 35.8981 20.6875L35.9301 20.7103L35.9633 20.7312C36.0275 20.7716 36.1119 20.8211 36.2207 20.8656C36.3192 20.9076 36.4218 20.9397 36.5264 20.9613L36.6021 20.9768L36.6791 20.9836L36.7475 20.9896L36.8063 20.9948L36.8764 20.9952C36.9622 20.9952 37.0512 20.987 37.1398 20.973L37.1744 20.9676L37.2088 20.9603C37.3849 20.9231 37.5555 20.8562 37.716 20.7615C37.8145 20.7069 37.905 20.6334 37.9622 20.5844C38.0023 20.5488 38.0344 20.5181 38.0632 20.4887C38.1193 20.4356 38.2129 20.3386 38.2981 20.2018L39.65 17.999C39.903 17.5851 40.3199 17.3037 40.795 17.2249L43.2371 16.8207C43.9409 16.7027 44.5077 16.1564 44.6504 15.4609C44.8032 14.7158 44.4585 13.9684 43.7927 13.601L41.859 12.5255C41.3971 12.2686 41.0813 11.8003 41.0143 11.273L40.6825 8.6129C40.6584 8.44721 40.6225 8.31459 40.5716 8.18927C40.5399 8.11182 40.4922 8.00585 40.4118 7.88889C40.2862 7.69968 40.1242 7.5402 39.9293 7.41424C39.8708 7.3758 39.8055 7.33936 39.7372 7.30763C39.6187 7.2499 39.4913 7.20681 39.3569 7.17923C39.2478 7.1568 39.1386 7.14551 39.0315 7.14551Z" fill="white"/>
</g>
<defs>
<filter id="filter0_d_16654_3806" x="-0.000110149" y="0.000378132" width="51.8313" height="46.2903" filterUnits="userSpaceOnUse" color-interpolation-filters="sRGB">
<feFlood flood-opacity="0" result="BackgroundImageFix"/>
<feColorMatrix in="SourceAlpha" type="matrix" values="0 0 0 0 0 0 0 0 0 0 0 0 0 0 0 0 0 0 127 0" result="hardAlpha"/>
<feOffset/>
<feGaussianBlur stdDeviation="3.57256"/>
<feComposite in2="hardAlpha" operator="out"/>
<feColorMatrix type="matrix" values="0 0 0 0 0 0 0 0 0 0 0 0 0 0 0 0 0 0 0.1 0"/>
<feBlend mode="normal" in2="BackgroundImageFix" result="effect1_dropShadow_16654_3806"/>
<feBlend mode="normal" in="SourceGraphic" in2="effect1_dropShadow_16654_3806" result="shape"/>
</filter>
</defs>
</svg>
