<svg width="20" height="20" viewBox="0 0 20 20" fill="none" xmlns="http://www.w3.org/2000/svg">
<path d="M6.5625 16.4699H11.0846L13.4853 14.0692L7.10662 7.69049L2.44853 12.3486L6.56618 16.4662L6.5625 16.4699ZM8.23529 18.8228H6.5625C5.9375 18.8228 5.33824 18.5765 4.89706 18.1353L0.625 13.8596C0.224265 13.4589 0 12.9184 0 12.3523C0 11.7861 0.224265 11.2456 0.625 10.8449L9.66912 1.80078C10.0699 1.40005 10.6103 1.17578 11.1765 1.17578C11.7426 1.17578 12.2831 1.40005 12.6838 1.80078L19.375 8.49196C19.7757 8.89269 20 9.43313 20 9.99931C20 10.5655 19.7757 11.1059 19.375 11.5067L14.4118 16.4699H18.8235C19.4743 16.4699 20 16.9956 20 17.6464C20 18.2971 19.4743 18.8228 18.8235 18.8228H8.23529Z" fill="white"/>
</svg>
