<svg width="56" height="56" viewBox="0 0 56 56" fill="none" xmlns="http://www.w3.org/2000/svg">
<path d="M30.6172 10.1152C33.7746 6.9578 38.261 5.53681 42.5254 6.29492L42.5605 6.30078C49.1315 7.34852 54 13.0699 54 19.748V20.2949C53.9999 24.321 52.2714 28.1709 49.3857 30.8643H49.3848L29.5879 49.3486L29.5635 49.3721L29.5391 49.3965C29.2529 49.6826 28.7318 49.9043 28 49.9043C27.1316 49.9043 26.6233 49.6681 26.3516 49.3965L26.3271 49.3721L26.3027 49.3486L6.50586 30.8643H6.50488C3.64299 28.1932 2.00006 24.3537 2 20.2949V19.748C2 13.0495 6.77906 7.34533 13.3301 6.30078L13.3652 6.29492C17.6296 5.53681 22.116 6.9578 25.2734 10.1152L25.3037 10.1455L25.3359 10.1748L26.6484 11.3779L28.0605 12.6719L30.6172 10.1152Z" fill="#FF8000" stroke="#FF9F40" stroke-width="4"/>
</svg>
