<svg width="20" height="20" viewBox="0 0 20 20" fill="none" xmlns="http://www.w3.org/2000/svg">
<g clip-path="url(#clip0_16682_4263)">
<path fill-rule="evenodd" clip-rule="evenodd" d="M13.2828 0.159479H13.2856L13.2899 0.163764L13.3113 0.17805L13.3885 0.232336C13.8002 0.521679 14.206 0.819359 14.6056 1.12519C15.3342 1.67805 16.2556 2.41376 16.9228 3.08234C17.5899 3.75091 18.3228 4.67091 18.8771 5.40234C19.1804 5.8036 19.4771 6.20985 19.7671 6.62091L19.8213 6.69805L19.8356 6.71805L19.8399 6.72376V6.72662C19.9586 6.8984 20.0134 7.10628 19.9949 7.31423C19.9763 7.52218 19.8856 7.71709 19.7385 7.86519C17.9871 9.61948 15.9813 10.9795 14.3613 11.8981C14.5785 13.8338 13.9228 15.8266 12.2556 17.3423C10.4913 18.9495 8.22706 19.6466 6.17992 19.8895C4.12849 20.1323 2.2042 19.9323 1.01135 19.6566C0.848413 19.6183 0.699395 19.5353 0.581038 19.4169C0.462682 19.2986 0.379676 19.1496 0.341348 18.9866C0.0670619 17.7923 -0.134367 15.8652 0.10849 13.8123C0.351348 11.7595 1.04849 9.49519 2.65135 7.72805C4.17563 6.04805 6.18278 5.39234 8.12849 5.62376C9.04563 4.00662 10.3999 2.00805 12.1428 0.262336C12.2907 0.113994 12.4861 0.0224082 12.6948 0.00360458C12.9035 -0.0151991 13.1107 0.0399775 13.2828 0.159479ZM8.35706 7.46662C6.79992 7.13805 5.1742 7.60519 3.9742 8.92805C2.70706 10.3238 2.09992 12.1852 1.88278 14.0223C1.78101 14.9028 1.75902 15.7907 1.81706 16.6752L4.60706 13.8938C4.4935 13.5501 4.43751 13.19 4.44135 12.828C4.44135 12.0666 4.65849 11.3452 5.18849 10.8138C5.71706 10.2852 6.43849 10.0666 7.19992 10.0666C7.96278 10.0666 8.68278 10.2852 9.21278 10.8152C9.74135 11.3438 9.95849 12.0666 9.95849 12.8295C9.95849 13.5923 9.74278 14.3123 9.21278 14.8423C8.68421 15.3709 7.96278 15.5895 7.19992 15.5895C6.83096 15.5937 6.46392 15.5358 6.11421 15.4181L3.34135 18.1823C4.2177 18.2413 5.09761 18.2193 5.96992 18.1166C7.80278 17.8995 9.65992 17.2909 11.0556 16.0223C12.3699 14.8252 12.8399 13.2052 12.5185 11.6509L12.5085 11.6109C12.3229 10.7862 11.9423 10.0181 11.3985 9.37091C11.1837 9.10941 10.9461 8.8675 10.6885 8.64805C10.0225 8.06528 9.22085 7.65905 8.35706 7.46662Z" fill="white"/>
</g>
<defs>
<clipPath id="clip0_16682_4263">
<rect width="20" height="20" fill="white"/>
</clipPath>
</defs>
</svg>
